<svg width="17" height="17" viewBox="0 0 17 17" fill="none" xmlns="http://www.w3.org/2000/svg">
<g clip-path="url(#clip0_1_370)">
<path d="M9.14062 1.26562C9.14062 0.7125 8.69375 0.265625 8.14062 0.265625C7.5875 0.265625 7.14062 0.7125 7.14062 1.26562V8.85L4.84688 6.55625C4.45625 6.16563 3.82188 6.16563 3.43125 6.55625C3.04063 6.94688 3.04063 7.58125 3.43125 7.97188L7.43125 11.9719C7.82188 12.3625 8.45625 12.3625 8.84688 11.9719L12.8469 7.97188C13.2375 7.58125 13.2375 6.94688 12.8469 6.55625C12.4563 6.16563 11.8219 6.16563 11.4312 6.55625L9.14062 8.85V1.26562ZM2.14062 11.2656C1.0375 11.2656 0.140625 12.1625 0.140625 13.2656V14.2656C0.140625 15.3687 1.0375 16.2656 2.14062 16.2656H14.1406C15.2437 16.2656 16.1406 15.3687 16.1406 14.2656V13.2656C16.1406 12.1625 15.2437 11.2656 14.1406 11.2656H10.9688L9.55313 12.6812C8.77188 13.4625 7.50625 13.4625 6.725 12.6812L5.3125 11.2656H2.14062ZM13.6406 13.0156C13.8395 13.0156 14.0303 13.0946 14.171 13.2353C14.3116 13.3759 14.3906 13.5667 14.3906 13.7656C14.3906 13.9645 14.3116 14.1553 14.171 14.296C14.0303 14.4366 13.8395 14.5156 13.6406 14.5156C13.4417 14.5156 13.2509 14.4366 13.1103 14.296C12.9696 14.1553 12.8906 13.9645 12.8906 13.7656C12.8906 13.5667 12.9696 13.3759 13.1103 13.2353C13.2509 13.0946 13.4417 13.0156 13.6406 13.0156Z" fill="black"/>
</g>
<defs>
<clipPath id="clip0_1_370">
<rect width="16" height="16" fill="white" transform="translate(0.140625 0.265625)"/>
</clipPath>
</defs>
</svg>
