<svg width="32" height="32" viewBox="0 0 32 32" fill="none" xmlns="http://www.w3.org/2000/svg">
<path d="M10.8733 24.8133C10.8319 24.9792 10.7281 25.0622 10.5622 25.0622C10.3133 25.0622 10.1889 24.9792 10.1889 24.8133C10.2304 24.6889 10.3341 24.6266 10.5 24.6266C10.7074 24.6266 10.8319 24.6889 10.8733 24.8133ZM8.93556 24.5644C8.89407 24.6889 8.97852 24.7926 9.18889 24.8755C9.3963 24.917 9.52074 24.8755 9.56222 24.7511C9.6037 24.5852 9.52074 24.48 9.31333 24.4355C9.10593 24.394 8.98 24.437 8.93556 24.5644ZM11.6867 24.4355C11.4793 24.48 11.3756 24.5852 11.3756 24.7511C11.417 24.8755 11.5415 24.9378 11.7489 24.9378C11.9593 24.8548 12.0644 24.7511 12.0644 24.6266C12.023 24.4992 11.897 24.4355 11.6867 24.4355ZM15.8111 0.502197C11.3548 0.58516 7.70889 2.04294 4.87333 4.87553C2.04074 7.70812 0.582963 11.3333 0.5 15.7511C0.541481 19.2918 1.52074 22.3955 3.43778 25.0622C5.35482 27.7289 7.91778 29.6044 11.1267 30.6889C11.8763 30.7303 12.2304 30.48 12.1889 29.9378C12.1889 29.7718 12.1889 29.4592 12.1889 29C12.1889 28.0429 12.1889 27.0844 12.1889 26.1244C12.1059 26.1244 11.7104 26.1659 11.0022 26.2489C10.2496 26.2903 9.45704 26.2074 8.62444 26C7.79185 25.7511 7.20815 25.1674 6.87333 24.2489C6.87333 24.1659 6.70741 23.8326 6.37556 23.2489C6.04074 22.7066 5.62444 22.2696 5.12667 21.9378C5.0437 21.8963 4.8763 21.7289 4.62444 21.4355C4.33407 21.1866 4.54296 21.0415 5.25111 21C5.29259 20.9585 5.58444 21.0415 6.12667 21.2489C6.66593 21.4178 7.16519 21.877 7.62444 22.6266C8.37407 23.7496 9.18741 24.3111 10.0644 24.3111C10.98 24.3111 11.6881 24.1866 12.1889 23.9378C12.3548 22.9363 12.6881 22.2281 13.1889 21.8133C11.3548 21.7303 9.75037 21.2711 8.37556 20.4355C7.00074 19.6444 6.27185 17.7911 6.18889 14.8755C6.18889 14.0429 6.31333 13.3555 6.56222 12.8133C6.76963 12.2711 7.1237 11.7496 7.62444 11.2489C7.54148 11 7.45852 10.5007 7.37556 9.75109C7.29259 9.00146 7.43778 8.08442 7.81111 6.99998C8.56074 6.87553 9.4363 7.10516 10.4378 7.68886C11.4807 8.23109 12.0437 8.56442 12.1267 8.68886C13.377 8.31257 14.6896 8.12442 16.0644 8.12442C17.3978 8.12442 18.7104 8.31257 20.0022 8.68886C20.0022 8.64738 20.2719 8.45924 20.8111 8.12442C21.3119 7.79257 21.8956 7.50072 22.5622 7.24886C23.2289 6.95849 23.8126 6.87553 24.3133 6.99998C24.6867 8.08442 24.8319 9.00146 24.7489 9.75109C24.6659 10.5007 24.5622 11 24.4378 11.2489C24.9385 11.7496 25.3341 12.2711 25.6244 12.8133C25.9178 13.3555 26.0644 14.0429 26.0644 14.8755C26.023 16.8755 25.6689 18.354 25.0022 19.3111C24.2911 20.2296 23.3948 20.8548 22.3133 21.1866C21.2289 21.5215 20.0822 21.7303 18.8733 21.8133C19.54 22.2726 19.8941 23.2311 19.9356 24.6889C19.9356 26.2296 19.9356 27.6044 19.9356 28.8133C19.9356 29.3555 19.9356 29.7303 19.9356 29.9378C19.8941 30.48 20.2496 30.7303 21.0022 30.6889C24.1667 29.6044 26.7074 27.7289 28.6244 25.0622C30.5 22.3955 31.4585 19.2918 31.5 15.7511C31.4585 12.8326 30.7504 10.2281 29.3756 7.93775C27.9593 5.64738 26.0837 3.83553 23.7489 2.5022C21.3756 1.21035 18.7296 0.543679 15.8111 0.502197ZM6.56222 22.0622C6.47926 22.1452 6.5 22.2489 6.62444 22.3733C6.74889 22.5007 6.85259 22.5215 6.93556 22.4355C7.02148 22.3526 7.00074 22.2489 6.87333 22.1244C6.79037 22 6.68667 21.9792 6.56222 22.0622ZM5.87333 21.5644C5.87333 21.6474 5.93704 21.7303 6.06444 21.8133C6.18889 21.8548 6.27185 21.834 6.31333 21.7511C6.35482 21.6681 6.31333 21.5852 6.18889 21.5022C6.06444 21.4578 5.95926 21.4785 5.87333 21.5644ZM7.93556 23.7511C7.85259 23.8755 7.87481 24.0207 8.00222 24.1866C8.16815 24.3111 8.31333 24.3318 8.43778 24.2489C8.47926 24.1244 8.43778 23.9792 8.31333 23.8133C8.14741 23.6889 8.02148 23.6681 7.93556 23.7511ZM7.18889 22.8755C7.10593 22.9585 7.10593 23.0829 7.18889 23.2489C7.31333 23.3733 7.43778 23.4148 7.56222 23.3733C7.64519 23.2903 7.64519 23.1659 7.56222 23C7.43778 22.834 7.31333 22.7926 7.18889 22.8755Z" fill="#00FFFF"/>
</svg>
