<svg width="29" height="28" viewBox="0 0 29 28" fill="none" xmlns="http://www.w3.org/2000/svg">
<path d="M26.7031 0H2.70312C2.11942 0 1.6409 0.188148 1.26757 0.564444C0.891273 0.979259 0.703125 1.45778 0.703125 2V26C0.703125 26.5422 0.891273 27.0207 1.26757 27.4356C1.6409 27.8119 2.11942 28 2.70312 28H26.7031C27.2868 28 27.7653 27.8119 28.1387 27.4356C28.515 27.0207 28.7031 26.5422 28.7031 26V2C28.7031 1.45778 28.515 0.979259 28.1387 0.564444C27.7653 0.188148 27.2868 0 26.7031 0ZM9.20535 24H9.13868H5.01424V10.6267H9.20535V24ZM7.07646 8.81333C6.40979 8.81333 5.84831 8.5837 5.39201 8.12444C4.93275 7.66519 4.70312 7.10222 4.70312 6.43556C4.70312 5.72741 4.93275 5.14519 5.39201 4.68889C5.84831 4.22963 6.40979 4 7.07646 4C7.78461 4 8.34757 4.22963 8.76535 4.68889C9.22461 5.14519 9.47498 5.72741 9.51646 6.43556C9.47498 7.10222 9.22461 7.66519 8.76535 8.12444C8.34757 8.5837 7.78461 8.81333 7.07646 8.81333ZM24.7031 24H20.5787V17.5022C20.6202 16.6667 20.5165 15.8741 20.2676 15.1244C20.0572 14.4163 19.432 14.0207 18.392 13.9378C17.3491 13.9793 16.6616 14.3333 16.3298 15C16.0365 15.6667 15.9105 16.4578 15.952 17.3733V24H11.7653V10.6267H15.7653V12.4356H15.8276C16.0794 11.8963 16.5387 11.4178 17.2053 11C17.872 10.5407 18.7253 10.3111 19.7653 10.3111C21.8068 10.3526 23.1609 10.957 23.8276 12.1244C24.4942 13.3333 24.7861 14.8548 24.7031 16.6889V24Z" fill="#00FFFF"/>
</svg>
