<svg width="22" height="25" viewBox="0 0 22 25" fill="none" xmlns="http://www.w3.org/2000/svg">
<path d="M20.7715 15.6566L18.7077 13.7333L18.801 13.8266L10.8291 5.99996C10.6424 5.84441 10.4401 5.82885 10.2223 5.9533L7.50162 8.01663C7.31491 8.2033 7.29935 8.38996 7.45494 8.57663L10.6424 11.6266C10.8624 11.7822 11.0814 11.7822 11.2992 11.6266C11.5504 11.4689 11.7693 11.4689 11.956 11.6266L15.8937 15.47C16.0826 15.6566 16.0826 15.8433 15.8937 16.03L11.4859 19.5C11.2681 19.6555 11.0491 19.6555 10.8291 19.5L3.70403 12.5633C3.51732 12.4055 3.29838 12.4055 3.04721 12.5633L0.936696 14.1566C0.718865 14.3433 0.687746 14.5466 0.84334 14.7666L10.6424 23.9533C10.6424 23.9533 10.7213 23.9844 10.8791 24.0466C11.0347 24.1089 11.2214 24.0622 11.4392 23.9066L20.7248 16.22C20.9115 16.0311 20.9271 15.8433 20.7715 15.6566ZM21.2383 9.79663L11.3926 0.139965C11.3303 0.077743 11.237 0.0310764 11.1125 -3.47225e-05C10.988 -0.0311458 10.8158 0.0310764 10.5957 0.186632L0.936696 7.77996C0.718865 7.96885 0.687746 8.15663 0.84334 8.3433L2.8605 10.3133L10.8791 18.0466C11.0969 18.2022 11.3303 18.2022 11.5793 18.0466L13.9265 16.22L14.2533 15.9366C14.4711 15.75 14.4866 15.5633 14.2999 15.3766L11.6293 12.7966C11.4092 12.6411 11.1903 12.6411 10.9725 12.7966C10.7213 12.9522 10.5023 12.9522 10.3156 12.7966L5.86122 8.4833C5.70563 8.29663 5.72119 8.10996 5.9079 7.9233L10.2223 4.54663C10.4712 4.39108 10.6902 4.40663 10.8791 4.5933L18.4276 12.0466C18.6143 12.2022 18.8321 12.2022 19.0811 12.0466L21.1916 10.36C21.4117 10.1711 21.4272 9.9833 21.2383 9.79663Z" fill="#00FFFF"/>
</svg>
