<svg width="25" height="24" viewBox="0 0 25 24" fill="none" xmlns="http://www.w3.org/2000/svg">
<path d="M24.3112 7.5L13.3446 0.186667C12.969 -0.0622222 12.5935 -0.0622222 12.2179 0.186667L1.25125 7.5C0.937917 7.68667 0.78125 7.96778 0.78125 8.34333V15.6567C0.78125 16.0011 0.937917 16.2822 1.25125 16.5L12.2179 23.8133C12.5935 24.0622 12.969 24.0622 13.3446 23.8133L24.3112 16.5C24.6246 16.2822 24.7812 16.0011 24.7812 15.6567V8.34333C24.7812 7.96778 24.6246 7.68667 24.3112 7.5ZM13.8113 2.95333L21.8746 8.34333L18.2646 10.7333L13.8113 7.78V2.95333ZM11.7513 2.95333V7.78L7.29792 10.7333L3.68792 8.34333L11.7513 2.95333ZM2.84458 10.2667L5.42125 12L2.84458 13.7333V10.2667ZM11.7513 21.0467L3.68792 15.6567L7.29792 13.2667L11.7513 16.22V21.0467ZM12.7812 14.4367L9.12458 12L12.7812 9.56333L16.4379 12L12.7812 14.4367ZM13.8113 21.0467V16.22L18.2646 13.2667L21.8746 15.6567L13.8113 21.0467ZM22.7179 13.7333L20.1413 12L22.7179 10.2667V13.7333Z" fill="#00FFFF"/>
</svg>
