<svg width="35" height="24" viewBox="0 0 35 24" fill="none" xmlns="http://www.w3.org/2000/svg">
<path d="M34.2793 3.75111C33.7815 2.20741 32.7608 1.18667 31.2171 0.688889C30.2186 0.478519 28.6778 0.311111 26.5949 0.186667C24.5119 0.103704 22.5741 0.0414815 20.7815 0C18.9889 0 18.0304 0 17.906 0C17.7815 0 16.823 0 15.0304 0C13.2378 0.0414815 11.3 0.103704 9.21708 0.186667C7.13412 0.311111 5.59338 0.478519 4.59486 0.688889C3.05116 1.18667 2.03042 2.20741 1.53264 3.75111C1.32227 4.70815 1.15486 5.81185 1.03042 7.06222C0.947454 8.35407 0.885231 9.50074 0.84375 10.5022C0.84375 11.4593 0.84375 11.9585 0.84375 12C0.84375 12.083 0.84375 12.6044 0.84375 13.5644C0.885231 14.563 0.947454 15.6874 1.03042 16.9378C1.15486 18.2296 1.32227 19.3541 1.53264 20.3111C2.03042 21.8548 3.05116 22.8548 4.59486 23.3111C5.59338 23.5215 7.13412 23.6889 9.21708 23.8133C11.3 23.8963 13.2378 23.9585 15.0304 24C16.823 24 17.7815 24 17.906 24C18.0304 24 18.9889 24 20.7815 24C22.5741 23.9585 24.5119 23.8963 26.5949 23.8133C28.6778 23.6889 30.2186 23.5215 31.2171 23.3111C32.7608 22.8548 33.7815 21.8548 34.2793 20.3111C34.4897 19.3541 34.6571 18.2296 34.7815 16.9378C34.8645 15.6874 34.9267 14.563 34.9682 13.5644C34.9682 12.6044 34.9682 12.083 34.9682 12C34.9682 11.9585 34.9682 11.4593 34.9682 10.5022C34.9267 9.50074 34.8645 8.35407 34.7815 7.06222C34.6571 5.81185 34.4897 4.70815 34.2793 3.75111ZM14.4082 17.1244V6.93778L23.3415 12L14.4082 17.1244Z" fill="#00FFFF"/>
</svg>
